<?xml version="1.0" standalone="no"?>
<!DOCTYPE svg PUBLIC "-//W3C//DTD SVG 20010904//EN"
 "http://www.w3.org/TR/2001/REC-SVG-20010904/DTD/svg10.dtd">
<svg version="1.0" xmlns="http://www.w3.org/2000/svg"
 width="160.000000pt" height="160.000000pt" viewBox="0 0 160.000000 160.000000"
 preserveAspectRatio="xMidYMid meet">

<g transform="translate(0.000000,160.000000) scale(0.100000,-0.100000)"
fill="#000000" stroke="none">
<path d="M760 1560 c0 -5 5 -10 10 -10 6 0 10 -18 10 -40 0 -22 5 -40 10 -40
6 0 10 18 10 40 0 22 5 40 10 40 6 0 10 5 10 10 0 6 -13 10 -30 10 -16 0 -30
-4 -30 -10z"/>
<path d="M836 1524 c-9 -26 -16 -49 -16 -51 0 -2 11 -1 25 3 15 4 25 2 25 -5
0 -6 5 -11 11 -11 14 0 2 80 -16 98 -10 11 -15 5 -29 -34z m21 -16 c-3 -8 -6
-5 -6 6 -1 11 2 17 5 13 3 -3 4 -12 1 -19z"/>
<path d="M665 1551 c-3 -6 -3 -28 1 -50 6 -37 9 -41 35 -41 16 0 29 5 29 11 0
6 -9 8 -20 4 -14 -5 -20 -2 -20 9 0 9 7 16 15 16 8 0 15 5 15 10 0 6 -9 10
-20 10 -11 0 -20 5 -20 10 0 6 6 10 14 10 8 0 18 5 21 10 3 6 -5 10 -19 10
-14 0 -27 -4 -31 -9z"/>
<path d="M910 1548 c0 -7 -3 -30 -6 -50 -5 -25 -3 -38 5 -38 6 0 11 12 12 28
1 27 1 27 11 -5 6 -18 15 -33 19 -33 8 0 11 10 25 78 2 12 0 22 -6 22 -5 0
-10 -9 -10 -20 0 -11 -4 -20 -10 -20 -5 0 -10 11 -10 25 0 16 -6 25 -15 25 -8
0 -15 -6 -15 -12z"/>
<path d="M626 1523 l6 -28 -21 25 c-26 33 -36 20 -25 -31 10 -48 34 -67 27
-22 l-5 28 17 -22 c33 -46 41 -21 19 60 -9 28 -25 19 -18 -10z"/>
<path d="M1006 1527 c-9 -7 -19 -28 -22 -48 -6 -34 -4 -37 22 -42 16 -3 30 -5
30 -4 1 1 5 12 8 25 6 16 3 22 -8 22 -9 0 -16 -7 -16 -15 0 -8 -4 -15 -10 -15
-14 0 -12 33 3 55 10 12 16 14 21 7 9 -14 26 -16 26 -2 0 18 -36 30 -54 17z"/>
<path d="M540 1514 c0 -25 26 -84 36 -84 10 0 9 10 -4 45 -9 25 -20 45 -24 45
-4 0 -8 -3 -8 -6z"/>
<path d="M480 1495 c-22 -13 -21 -20 3 -16 4 1 15 -15 24 -34 9 -19 21 -35 26
-35 10 0 0 39 -15 58 -7 8 -6 17 2 27 17 20 -5 20 -40 0z"/>
<path d="M1083 1502 c-16 -10 -35 -62 -29 -79 3 -7 16 -13 29 -13 44 0 62 84
21 97 -5 1 -14 -1 -21 -5z m27 -21 c0 -20 -20 -61 -30 -61 -14 0 -13 26 2 50
13 21 28 27 28 11z"/>
<path d="M440 1471 c0 -7 5 -22 11 -34 11 -21 11 -21 -14 2 -36 33 -51 18 -25
-26 21 -34 21 -36 3 -49 -21 -15 -43 -8 -26 9 17 17 13 26 -9 20 -22 -6 -26 7
-8 25 19 19 5 22 -19 3 l-22 -18 26 -37 c30 -41 36 -43 62 -17 11 11 22 17 25
14 10 -11 6 17 -5 40 l-12 22 24 -21 c38 -34 54 -19 28 24 -29 48 -39 59 -39
43z"/>
<path d="M1160 1415 c-33 -34 -33 -39 3 -36 9 1 17 -3 17 -9 0 -18 52 -61 69
-57 12 2 15 13 14 40 -2 38 12 51 20 20 4 -13 5 -12 6 5 1 28 -25 40 -46 20
-12 -13 -13 -20 -3 -38 13 -23 8 -36 -9 -25 -6 3 -9 11 -6 16 4 5 -1 9 -10 9
-12 0 -15 5 -10 18 29 77 10 93 -45 37z m33 -10 c-3 -9 -8 -14 -10 -11 -3 3
-2 9 2 15 9 16 15 13 8 -4z"/>
<path d="M625 1406 c-38 -12 -92 -34 -120 -49 -52 -27 -133 -93 -102 -83 50
16 154 28 193 22 54 -7 137 -48 157 -77 12 -17 21 -20 46 -14 17 3 34 11 37
16 3 6 -6 55 -22 110 l-27 99 -46 0 c-25 -1 -77 -11 -116 -24z"/>
<path d="M293 1373 c-26 -10 -12 -50 28 -80 13 -11 20 -10 38 6 21 18 21 19 3
41 -16 20 -19 21 -31 6 -11 -14 -11 -16 3 -16 9 0 16 -4 16 -10 0 -16 -15 -12
-33 8 -21 23 -21 32 -2 32 8 0 15 5 15 10 0 10 -16 12 -37 3z"/>
<path d="M1085 1337 c10 -46 18 -51 60 -37 l37 12 -34 22 c-18 13 -41 26 -51
29 -16 6 -18 3 -12 -26z"/>
<path d="M1295 1350 c-3 -6 -4 -24 0 -40 4 -18 2 -30 -4 -30 -5 0 -11 10 -14
23 -3 20 -4 20 -12 4 -10 -24 17 -52 41 -43 13 5 15 14 11 41 -3 19 -2 35 4
35 5 0 9 -7 9 -15 0 -8 5 -15 11 -15 6 0 9 10 7 23 -3 24 -41 36 -53 17z"/>
<path d="M223 1301 c-11 -18 -8 -24 25 -50 42 -35 39 -38 -18 -15 -61 25 -72
6 -25 -43 20 -21 34 -30 31 -20 -4 13 2 20 19 27 28 11 45 42 27 48 -26 8 -10
21 21 16 29 -4 30 -3 13 8 -10 7 -26 21 -35 31 -20 22 -43 22 -58 -2z m37 -17
c0 -8 -4 -12 -10 -9 -5 3 -10 10 -10 16 0 5 5 9 10 9 6 0 10 -7 10 -16z m-30
-76 c0 -6 -6 -5 -15 2 -8 7 -15 14 -15 16 0 2 7 1 15 -2 8 -4 15 -11 15 -16z"/>
<path d="M1333 1276 c-23 -20 -26 -28 -17 -43 17 -27 41 -27 69 1 21 21 24 29
15 46 -14 26 -33 25 -67 -4z m57 -3 c0 -12 -33 -43 -47 -43 -20 0 -16 17 9 34
24 17 38 20 38 9z"/>
<path d="M1382 1214 c-30 -20 -26 -58 6 -62 12 -2 22 2 22 8 0 7 -6 10 -14 7
-22 -9 -28 5 -9 25 20 22 55 25 47 3 -7 -16 11 -21 20 -6 11 17 -6 41 -28 41
-12 0 -32 -7 -44 -16z"/>
<path d="M134 1148 c5 -22 3 -26 -9 -22 -31 12 -13 -12 25 -33 24 -14 41 -19
45 -13 3 6 -1 13 -9 16 -25 9 -19 24 9 24 14 0 25 5 25 10 0 6 -14 10 -31 10
-18 0 -38 8 -46 18 -13 15 -14 15 -9 -10z"/>
<path d="M1428 1149 c-21 -11 -38 -23 -38 -27 0 -13 15 -28 33 -35 13 -5 17
-13 12 -28 -6 -18 -4 -19 12 -10 36 21 64 51 58 61 -4 7 -23 8 -52 4 -51 -8
-53 5 -3 26 16 7 30 16 30 21 0 13 -10 11 -52 -12z m47 -59 c-3 -5 -11 -10
-16 -10 -6 0 -7 5 -4 10 3 6 11 10 16 10 6 0 7 -4 4 -10z"/>
<path d="M90 1089 c0 -5 16 -17 35 -25 19 -8 35 -19 35 -24 0 -13 -1 -13 -43
5 -20 8 -38 11 -41 6 -3 -5 13 -16 35 -25 32 -13 44 -14 55 -5 29 24 15 44
-50 69 -18 6 -26 6 -26 -1z"/>
<path d="M431 1054 c-21 -15 -23 -22 -18 -75 l5 -59 -36 -10 c-21 -5 -75 -20
-122 -33 l-85 -24 2 -82 c1 -53 9 -107 24 -154 l23 -72 7 51 c13 102 66 161
217 249 98 56 117 79 109 136 -11 82 -66 114 -126 73z"/>
<path d="M1507 1057 c-3 -8 -19 -18 -36 -22 -17 -4 -31 -13 -31 -20 0 -12 6
-12 40 0 22 8 40 10 40 5 0 -6 5 -10 10 -10 14 0 12 23 -3 44 -12 16 -15 17
-20 3z"/>
<path d="M852 1031 c-14 -9 -16 -4 82 -356 31 -110 67 -222 81 -249 14 -27 24
-50 22 -52 -4 -4 -257 -74 -267 -74 -4 0 -16 23 -27 52 l-20 52 -7 -35 c-8
-45 -64 -111 -112 -134 -44 -20 -38 -26 52 -49 79 -20 222 -21 299 -1 66 18
190 71 205 90 7 8 1 18 -20 34 -52 38 -69 86 -212 609 -33 122 -42 135 -76
113z"/>
<path d="M1500 988 c-55 -15 -63 -32 -11 -24 49 7 61 13 61 27 0 11 -4 10 -50
-3z"/>
<path d="M50 957 c0 -20 7 -25 45 -34 46 -11 55 -5 55 35 -1 16 -2 15 -14 0
-16 -22 -26 -23 -26 -3 0 8 -4 15 -10 15 -5 0 -10 -4 -10 -10 0 -5 -4 -10 -10
-10 -5 0 -10 7 -10 15 0 8 -4 15 -10 15 -5 0 -10 -10 -10 -23z"/>
<path d="M1471 936 c-9 -11 -10 -20 -1 -36 9 -17 17 -20 43 -15 40 9 60 27 51
48 -8 21 -76 23 -93 3z m74 -6 c3 -6 -6 -15 -20 -20 -36 -14 -45 -13 -45 4 0
21 54 34 65 16z"/>
<path d="M40 901 c0 -5 9 -11 21 -14 12 -3 18 -10 14 -16 -3 -6 -11 -9 -16 -6
-5 4 -15 3 -21 -1 -9 -6 -5 -10 12 -15 38 -11 80 -10 80 1 0 6 -9 10 -20 10
-11 0 -20 5 -20 10 0 6 11 10 25 10 35 0 31 16 -6 24 -44 8 -69 8 -69 -3z"/>
<path d="M1470 860 c0 -5 12 -10 28 -11 l27 -1 -28 -10 c-27 -10 -33 -34 -9
-32 7 1 28 2 47 3 38 1 49 21 13 22 l-23 0 23 9 c38 16 25 30 -28 30 -27 0
-50 -4 -50 -10z"/>
<path d="M30 800 c0 -16 5 -30 10 -30 6 0 10 5 10 10 0 6 18 10 40 10 22 0 40
5 40 10 0 6 -18 10 -40 10 -22 0 -40 5 -40 10 0 6 -4 10 -10 10 -5 0 -10 -13
-10 -30z"/>
<path d="M581 725 c-24 -18 -50 -43 -57 -56 -31 -56 -1 -177 49 -200 36 -16
79 7 91 49 9 34 -2 113 -28 201 l-11 38 -44 -32z"/>
<path d="M122 524 c-37 -29 -34 -47 6 -38 l27 7 -25 -21 c-33 -27 -20 -37 31
-24 l41 11 -32 -34 c-33 -34 -27 -55 11 -35 11 7 23 9 26 7 2 -3 -5 -10 -16
-17 -12 -6 -21 -17 -21 -25 0 -19 2 -19 47 0 49 20 49 20 18 -21 -29 -38 -26
-56 5 -36 29 18 35 15 15 -8 -32 -35 -4 -43 43 -11 23 15 39 31 35 34 -3 4
-18 0 -32 -10 l-26 -16 17 25 c22 33 13 42 -20 20 l-25 -17 16 25 c24 37 8 58
-30 41 -27 -12 -27 -12 -10 6 16 19 23 43 11 43 -3 0 -15 -5 -27 -11 -22 -12
-22 -12 -3 9 26 29 14 54 -21 46 l-28 -6 23 19 c27 22 19 35 -17 27 l-26 -6
25 21 c38 31 2 26 -38 -5z"/>
<path d="M1430 539 c0 -8 6 -21 13 -28 10 -11 8 -12 -10 -6 -40 11 -25 -10 22
-33 37 -18 45 -19 45 -7 0 8 -4 15 -10 15 -5 0 -10 5 -10 10 0 6 9 10 19 10
11 0 23 5 26 10 4 6 -7 10 -26 10 -18 0 -41 7 -51 17 -15 13 -18 14 -18 2z"/>
<path d="M1400 470 c0 -5 14 -16 30 -25 17 -9 30 -20 30 -25 0 -13 -10 -12
-40 5 -28 16 -40 18 -40 8 0 -10 58 -43 75 -43 12 0 25 21 25 41 0 9 -59 49
-72 49 -5 0 -8 -4 -8 -10z"/>
<path d="M1335 376 c-11 -8 -16 -21 -13 -33 4 -14 0 -19 -15 -19 -10 1 -24 -7
-30 -16 -9 -14 -6 -22 13 -43 29 -31 64 -30 68 3 2 12 -2 22 -8 22 -7 0 -10
-7 -7 -15 10 -25 -9 -25 -33 0 -13 14 -22 27 -19 29 12 10 59 15 64 6 9 -15
41 -12 55 5 10 13 9 19 -6 36 -30 33 -49 40 -69 25z m43 -29 c12 -13 19 -26
16 -30 -9 -9 -54 23 -54 39 0 20 14 17 38 -9z"/>
<path d="M1425 360 c4 -6 11 -8 16 -5 14 9 11 15 -7 15 -8 0 -12 -5 -9 -10z"/>
<path d="M326 239 c-38 -28 -39 -33 -4 -30 10 1 18 -7 20 -21 3 -20 6 -18 26
19 37 72 24 82 -42 32z m34 -9 c0 -5 -5 -10 -11 -10 -5 0 -7 5 -4 10 3 6 8 10
11 10 2 0 4 -4 4 -10z"/>
<path d="M1203 253 c-32 -12 8 -93 45 -93 23 0 32 36 15 61 -26 37 -36 42 -60
32z m41 -35 c19 -27 20 -38 5 -38 -14 0 -38 30 -39 48 0 19 17 14 34 -10z"/>
<path d="M275 240 c-3 -5 -1 -10 4 -10 6 0 11 5 11 10 0 6 -2 10 -4 10 -3 0
-8 -4 -11 -10z"/>
<path d="M393 205 c-13 -19 -23 -39 -23 -45 0 -16 17 -12 24 6 3 8 10 12 16 9
7 -4 7 -13 0 -26 -8 -14 -7 -19 3 -19 8 0 22 18 32 40 18 39 18 41 -1 55 -26
20 -26 19 -51 -20z m47 -6 c0 -5 -7 -9 -15 -9 -9 0 -12 6 -9 15 6 15 24 11 24
-6z"/>
<path d="M1290 220 c0 -5 5 -10 11 -10 5 0 7 5 4 10 -3 6 -8 10 -11 10 -2 0
-4 -4 -4 -10z"/>
<path d="M1137 209 c-20 -12 -16 -42 11 -71 17 -20 30 -22 51 -9 17 11 5 51
-15 51 -17 0 -18 -12 -3 -27 7 -7 7 -13 0 -17 -5 -4 -17 7 -26 24 -8 16 -13
31 -10 31 3 1 10 2 15 3 12 1 15 20 3 23 -4 1 -16 -2 -26 -8z"/>
<path d="M462 170 c-20 -32 -15 -67 10 -73 22 -6 38 6 38 31 0 6 -7 12 -16 12
-8 0 -13 -4 -9 -9 3 -5 1 -12 -5 -16 -13 -8 -13 21 1 47 11 21 12 21 25 3 15
-21 30 -14 21 10 -9 22 -50 19 -65 -5z"/>
<path d="M1090 180 c0 -6 5 -21 11 -33 11 -21 10 -21 -15 2 -14 14 -29 21 -32
18 -10 -10 26 -98 37 -91 5 3 5 13 -1 24 -17 31 -11 35 15 10 34 -32 42 -19
20 30 -19 42 -35 60 -35 40z"/>
<path d="M531 124 c-12 -39 -12 -47 0 -55 19 -12 39 -11 39 1 0 6 -7 10 -15
10 -8 0 -15 7 -15 16 0 11 6 14 20 9 25 -8 26 3 3 21 -16 12 -15 13 11 14 30
0 30 -4 10 -72 -9 -29 14 -20 24 10 l10 27 1 -32 c1 -49 29 -43 37 7 9 53 29
46 28 -9 -1 -52 20 -50 24 2 2 27 8 37 20 37 15 0 15 2 2 10 -8 5 -29 10 -46
10 -24 0 -33 -5 -39 -22 -7 -22 -8 -21 -14 7 -3 17 -11 30 -16 31 -6 0 -23 6
-38 12 -16 7 -29 12 -30 12 -2 0 -9 -21 -16 -46z"/>
<path d="M990 100 c0 -54 3 -58 27 -35 12 12 18 13 29 4 22 -18 18 7 -7 47
-31 51 -49 44 -49 -16z m34 5 c3 -8 1 -15 -4 -15 -6 0 -10 7 -10 15 0 8 2 15
4 15 2 0 6 -7 10 -15z"/>
<path d="M950 135 c-8 -2 -32 -6 -52 -10 -38 -6 -38 -6 -38 -55 0 -52 14 -63
50 -40 12 8 11 10 -7 10 -14 0 -23 6 -23 15 0 8 7 15 15 15 8 0 15 5 15 11 0
6 -7 9 -15 5 -9 -3 -15 0 -15 9 0 8 6 15 13 16 6 0 20 2 29 4 12 2 18 -7 23
-36 10 -55 23 -48 22 11 -1 27 -2 49 -2 49 0 -1 -7 -3 -15 -4z"/>
<path d="M746 104 c-10 -25 -7 -84 4 -84 6 0 10 23 10 50 0 52 -4 61 -14 34z"/>
<path d="M780 70 c0 -51 19 -72 21 -22 l1 27 10 -27 c22 -63 50 -16 31 52 l-7
25 -7 -30 -6 -30 -11 28 c-18 42 -32 32 -32 -23z"/>
</g>
</svg>
