<svg xmlns="http://www.w3.org/2000/svg" width="1529" height="1330" viewBox="0 0 1529 1330" version="1.1"><path d="M 733.750 72.689 C 732.307 73.066, 732 74.301, 732 79.722 L 732 86.296 739.874 85.689 L 747.748 85.082 748.488 116.172 L 749.228 147.261 755.261 146.631 C 758.579 146.284, 762.192 146, 763.289 146 C 765.256 146, 765.275 145.556, 764.557 115.500 L 763.828 85 771.914 85 L 780 85 780 78.500 L 780 72 757.750 72.116 C 745.513 72.180, 734.712 72.438, 733.750 72.689 M 798.157 75.133 C 796.786 78.808, 790.736 96.024, 785.201 112 C 782.438 119.975, 778.722 130.672, 776.944 135.772 C 775.166 140.872, 773.888 145.210, 774.105 145.413 C 774.322 145.615, 778.060 145.943, 782.411 146.141 L 790.323 146.500 792.629 138.956 L 794.935 131.412 803.600 132.172 C 808.366 132.590, 812.504 133.171, 812.796 133.463 C 813.088 133.755, 813.816 137.258, 814.414 141.247 L 815.500 148.500 823.293 149.374 C 827.579 149.854, 831.316 150.017, 831.598 149.736 C 831.879 149.454, 830.525 140.961, 828.587 130.862 C 826.650 120.763, 823.492 104.215, 821.570 94.088 C 819.648 83.961, 817.721 75.339, 817.288 74.928 C 816.855 74.517, 812.571 73.862, 807.770 73.474 C 799.211 72.781, 799.022 72.813, 798.157 75.133 M 681 78.100 C 674.125 79.158, 666.250 80.364, 663.500 80.780 C 657.606 81.672, 657.763 79.144, 661.994 105 C 663.569 114.625, 665.832 129.475, 667.023 138 C 668.213 146.525, 669.556 153.888, 670.006 154.363 C 670.463 154.844, 674.953 154.525, 680.163 153.640 C 685.298 152.768, 694.412 151.368, 700.415 150.529 C 706.419 149.689, 711.509 148.824, 711.727 148.606 C 711.945 148.388, 711.812 145.463, 711.432 142.105 C 710.615 134.883, 711.433 135.087, 694.366 137.834 L 683.231 139.626 682.583 134.063 C 682.226 131.003, 681.680 126.898, 681.370 124.941 L 680.805 121.382 692.994 119.583 L 705.182 117.784 704.557 114.142 C 702.734 103.525, 704.352 104.352, 689.518 106.453 C 682.400 107.461, 679.343 107.555, 678.864 106.780 C 678.494 106.182, 677.883 103.216, 677.504 100.190 C 677.126 97.163, 676.585 94.082, 676.301 93.343 C 675.959 92.452, 676.579 92.003, 678.143 92.010 C 679.439 92.015, 685.359 91.250, 691.297 90.309 L 702.094 88.597 701.422 83.049 C 701.053 79.997, 700.555 77.162, 700.316 76.750 C 699.668 75.631, 694.872 75.966, 681 78.100 M 847.478 78.424 C 846.069 83.065, 833.735 150.144, 834.229 150.471 C 835.423 151.258, 847.587 152.800, 848.111 152.230 C 848.481 151.829, 850.442 142.275, 852.469 131 C 854.496 119.725, 856.417 109.600, 856.738 108.500 C 857.058 107.400, 858.822 115.950, 860.658 127.500 C 862.493 139.050, 864.344 150.300, 864.771 152.500 L 865.546 156.500 873.523 158.120 C 877.910 159.011, 881.804 159.461, 882.175 159.120 C 882.816 158.532, 887.492 135.224, 893.500 102.669 C 895.026 94.403, 895.853 87.493, 895.369 87.060 C 894.421 86.212, 882.873 83.793, 882.336 84.331 C 881.872 84.794, 876.462 111.849, 874.903 121.500 C 873.316 131.325, 873.224 131.050, 869.014 104 C 867.345 93.275, 865.770 83.567, 865.515 82.427 C 865.124 80.683, 863.687 80.117, 856.427 78.851 C 850.445 77.808, 847.704 77.677, 847.478 78.424 M 635.873 86.454 C 629.053 88.335, 629.011 88.393, 630.638 93.749 C 633.012 101.563, 640.971 132.362, 640.689 132.644 C 640.545 132.788, 634.404 124.039, 627.041 113.203 C 619.678 102.366, 613.537 93.342, 613.393 93.149 C 613.034 92.667, 598.332 96.177, 596.836 97.101 C 595.937 97.657, 596.857 102.519, 600.447 116.174 C 603.097 126.253, 607.261 142.144, 609.702 151.486 C 612.142 160.829, 614.313 168.647, 614.526 168.859 C 614.738 169.072, 617.902 168.437, 621.556 167.447 L 628.200 165.649 627.622 162.075 C 627.304 160.109, 624.768 150.004, 621.986 139.620 C 617.273 122.029, 616.420 117.188, 618.823 121.664 C 619.365 122.674, 625.517 131.825, 632.495 142 C 646.560 162.512, 644.778 161.258, 655.750 158.356 C 660.074 157.213, 662 156.217, 662 155.127 C 662 153.597, 659.594 144.315, 648.813 104.250 C 643.137 83.159, 643.921 84.236, 635.873 86.454 M 803.119 102.763 C 797.999 120.539, 797.796 118.756, 804.991 119.156 L 811.179 119.500 810.638 116 C 810.341 114.075, 809.545 107.662, 808.869 101.750 C 808.193 95.838, 807.383 91.006, 807.070 91.013 C 806.756 91.019, 804.979 96.307, 803.119 102.763 M 919 96.055 C 910.036 99.825, 902.607 113.587, 896.548 137.644 C 893.790 148.593, 894.977 158, 899.788 163.320 C 904.599 168.640, 917.130 171.578, 922.844 168.727 L 925.910 167.198 925.368 169.910 C 924.855 172.477, 925.129 172.707, 930.481 174.196 L 936.137 175.771 937.068 173.320 C 937.581 171.972, 938 170.539, 938 170.135 C 938 169.731, 940.250 162.246, 943 153.500 C 945.750 144.755, 947.662 137.297, 947.250 136.927 C 945.742 135.573, 924.674 129.929, 924.016 130.703 C 922.673 132.281, 920.864 140.264, 921.673 141.045 C 922.128 141.484, 924.075 142.254, 926 142.756 C 929.948 143.785, 930.050 144.718, 926.978 151.737 C 924.494 157.414, 919.213 160.189, 915.183 157.935 C 910.885 155.531, 910.219 150.624, 912.705 139.672 C 915.326 128.125, 920.387 114.883, 923.668 110.982 C 926.164 108.016, 930.897 106.960, 933.600 108.765 C 935.932 110.322, 937.143 114.193, 936.496 118.022 L 935.842 121.894 942.974 124.061 C 946.897 125.252, 950.420 125.913, 950.803 125.530 C 951.186 125.147, 951.500 121.123, 951.500 116.589 C 951.500 109.037, 951.257 108.026, 948.607 104.551 C 944.700 99.429, 936.638 95.815, 928.094 95.357 C 924.467 95.163, 920.375 95.477, 919 96.055 M 574.564 104.696 C 570.749 105.985, 567.490 107.177, 567.321 107.345 C 566.953 107.714, 571.338 120.564, 581.024 147.500 C 584.979 158.500, 588.928 169.637, 589.798 172.250 C 590.669 174.863, 591.914 177, 592.565 177 C 593.681 177, 598.093 175.538, 604.219 173.138 L 606.937 172.073 605.364 167.787 C 601.036 155.998, 590.422 126.212, 587.028 116.333 C 584.919 110.191, 582.812 104.533, 582.346 103.760 C 581.637 102.581, 580.377 102.733, 574.564 104.696 M 543.500 116.642 C 536.900 119.646, 528.304 123.445, 524.397 125.084 C 513.140 129.807, 513.207 129.720, 515.936 136.118 C 517.199 139.078, 518.360 141.642, 518.515 141.816 C 518.671 141.990, 522.061 140.744, 526.048 139.048 C 530.034 137.351, 533.364 136.084, 533.446 136.232 C 533.894 137.036, 541.556 154.227, 546.491 165.500 C 555.615 186.342, 557.845 191, 558.697 191.003 C 559.139 191.004, 562.341 189.800, 565.814 188.326 C 571.197 186.041, 572.050 185.336, 571.602 183.549 C 571.312 182.396, 565.890 169.763, 559.553 155.476 L 548.030 129.500 555.015 126.280 C 558.857 124.510, 562 122.718, 562 122.300 C 562 120.290, 557.502 111.011, 556.566 111.090 C 555.980 111.140, 550.100 113.638, 543.500 116.642 M 977.764 115.944 C 969.427 118.611, 964.638 124.220, 956.941 140.334 C 952.330 149.987, 947.993 163.614, 948.006 168.410 C 948.034 179.118, 956.403 187.303, 971.110 191.006 C 983.713 194.179, 994.174 184.208, 1004.004 159.652 C 1012.888 137.458, 1010.620 126.346, 995.714 119.047 C 988.979 115.749, 982.095 114.559, 977.764 115.944 M 983.491 129.021 C 980.337 130.198, 978.454 132.846, 973.186 143.514 C 964.029 162.059, 961.657 172.101, 965.521 175.965 C 968.612 179.056, 973.054 179.532, 976.141 177.104 C 981.321 173.029, 994 144.633, 994 137.105 C 994 135.058, 993.438 132.620, 992.750 131.687 C 991.153 129.522, 986.070 128.058, 983.491 129.021 M 497.233 138.430 C 494.336 140.229, 491.716 141.951, 491.410 142.256 C 490.961 142.706, 506.631 171.006, 512.863 181 C 514.772 184.061, 516.401 185.340, 493.206 165.568 L 475.912 150.825 468.456 155.091 C 464.355 157.437, 461 159.769, 461 160.273 C 461 161.192, 494.005 219.257, 496.351 222.465 C 497.499 224.035, 498.097 223.880, 503.821 220.526 C 507.243 218.520, 509.865 216.569, 509.647 216.189 C 509.429 215.810, 504.864 207.850, 499.503 198.500 C 494.143 189.150, 488.832 179.925, 487.703 178 L 485.650 174.500 488.075 176.651 C 498.865 186.222, 523.735 207.306, 524.686 207.688 C 525.831 208.148, 540 200.326, 540 199.235 C 540 198.273, 503.515 135.025, 503 135.093 C 502.725 135.129, 500.130 136.631, 497.233 138.430 M 1055.481 160.781 C 1052.170 163.927, 1039.795 175.439, 1027.981 186.364 C 1016.166 197.289, 1006.398 206.514, 1006.273 206.864 C 1006.147 207.214, 1009.018 209.454, 1012.651 211.842 L 1019.257 216.183 1025.024 210.476 L 1030.792 204.769 1038.146 209.502 C 1042.191 212.105, 1045.677 214.396, 1045.893 214.593 C 1046.211 214.884, 1044.504 220.108, 1041.321 228.582 C 1041.005 229.424, 1047.918 234.307, 1054.252 237.716 C 1055.212 238.232, 1056.181 235.638, 1061.430 218.500 C 1063.789 210.800, 1068.277 196.400, 1071.405 186.500 C 1074.532 176.600, 1077.315 167.747, 1077.588 166.826 C 1077.951 165.606, 1076.124 163.883, 1070.847 160.470 C 1066.866 157.894, 1063.134 155.624, 1062.554 155.425 C 1061.974 155.225, 1058.791 157.636, 1055.481 160.781 M 432.500 179.025 C 424.250 185.027, 417.102 190.548, 416.615 191.294 C 415.831 192.496, 432.255 216.317, 454.333 246 C 456.583 249.025, 458.501 251.635, 458.594 251.799 C 458.721 252.021, 490.385 229.463, 492.918 227.346 C 493.541 226.826, 491.258 222.929, 488.199 219.288 L 485.500 216.076 475.500 223.496 C 470 227.578, 464.974 230.936, 464.330 230.958 C 463.687 230.981, 460.874 227.856, 458.079 224.014 L 452.997 217.027 461.618 210.764 C 466.360 207.319, 470.887 204.037, 471.678 203.471 C 472.873 202.616, 472.486 201.599, 469.390 197.471 C 467.340 194.737, 465.548 192.348, 465.409 192.162 C 465.270 191.976, 460.752 194.981, 455.369 198.841 C 449.986 202.701, 445.308 205.690, 444.973 205.484 C 444.639 205.277, 442.475 202.413, 440.164 199.119 L 435.963 193.130 439.232 190.742 C 441.029 189.429, 445.770 185.976, 449.767 183.070 L 457.033 177.786 453.599 173.143 C 451.711 170.589, 449.566 168.413, 448.833 168.307 C 448.100 168.201, 440.750 173.024, 432.500 179.025 M 1051.500 183.659 C 1046 189.488, 1041.500 194.633, 1041.500 195.094 C 1041.500 195.554, 1043.650 197.294, 1046.277 198.961 L 1051.053 201.990 1051.898 199.745 C 1052.362 198.510, 1054.429 192.775, 1056.491 187 C 1058.552 181.225, 1060.651 175.713, 1061.155 174.750 C 1061.658 173.787, 1061.942 173.014, 1061.785 173.031 C 1061.628 173.049, 1057 177.831, 1051.500 183.659 M 1099.511 188.262 C 1094.307 189.632, 1085.875 198.137, 1084.209 203.697 C 1081.922 211.329, 1083.121 216.336, 1089.940 227.642 C 1094.109 234.554, 1094.883 238.474, 1092.837 242.316 C 1089.220 249.106, 1079.690 248.286, 1077.138 240.965 C 1076.300 238.561, 1076.552 237.260, 1078.602 233.404 C 1079.964 230.842, 1080.949 228.669, 1080.789 228.575 C 1080.630 228.480, 1078.091 226.432, 1075.147 224.022 C 1068.824 218.847, 1067.870 219.094, 1063.750 226.971 C 1059.036 235.983, 1060.569 242.771, 1069.191 251.071 C 1075.825 257.458, 1083.188 261, 1089.830 261 C 1096.128 261, 1098.099 260.104, 1103.830 254.633 C 1109.591 249.135, 1111 246.173, 1111 239.565 C 1111 234.795, 1110.241 232.584, 1105.500 223.544 C 1099.633 212.357, 1099.190 210.466, 1101.425 206.145 C 1104.393 200.406, 1111.059 200.109, 1114.629 205.556 C 1116.119 207.830, 1116.184 208.644, 1115.095 211.351 C 1112.787 217.088, 1112.880 217.383, 1118.376 221.750 C 1121.318 224.088, 1123.993 226, 1124.320 226 C 1125.366 226, 1129.780 217.617, 1130.463 214.334 C 1131.542 209.150, 1129.306 203.242, 1124.199 197.782 C 1116.580 189.637, 1107.537 186.149, 1099.511 188.262 M 392.219 210.578 C 389.373 211.997, 385.015 215.413, 382.536 218.172 C 372.790 229.012, 374.179 239.057, 387.786 256.128 C 399.884 271.304, 412.710 280.966, 420.790 280.990 C 428.018 281.012, 439.216 271.695, 440.558 264.543 C 441.172 261.271, 441.403 261.052, 442.870 262.359 C 444.320 263.650, 444.989 263.387, 448.929 259.974 C 452.944 256.496, 453.225 255.967, 451.929 254.326 C 447.202 248.337, 426.592 225.978, 426.016 226.215 C 424.965 226.648, 408.175 241.427, 408.084 242 C 408.041 242.275, 409.764 244.525, 411.914 247 L 415.822 251.500 419.325 248.138 L 422.827 244.775 425.904 248.138 C 431.828 254.611, 432.139 262.613, 426.565 265.152 C 421.856 267.298, 415.148 262.824, 403.036 249.459 C 392.020 237.303, 388.499 228.573, 392.977 224.520 C 395.512 222.226, 401.327 223.019, 404.614 226.107 L 406.941 228.293 412.471 223.569 C 415.512 220.971, 418 218.514, 418 218.110 C 418 216.591, 412.338 212.044, 408 210.081 C 402.014 207.371, 398.427 207.485, 392.219 210.578 M 1139 227.579 C 1133.939 230.452, 1129.780 234.860, 1127.388 239.888 C 1125.016 244.872, 1125.984 252.049, 1130.320 261.626 C 1132.344 266.095, 1134 271.317, 1134 273.230 C 1134 280.994, 1124.868 284.959, 1119.455 279.545 C 1116.083 276.174, 1116.164 271.147, 1119.658 266.995 L 1122.315 263.837 1116.753 258.275 L 1111.191 252.713 1107.846 256.465 C 1103.386 261.467, 1102.099 264.546, 1102.045 270.349 C 1101.984 276.873, 1104.039 280.779, 1111.048 287.464 C 1124.431 300.230, 1136.672 299.984, 1147.342 286.735 C 1149.736 283.762, 1150.460 281.762, 1150.781 277.235 C 1151.128 272.336, 1150.591 269.969, 1147.099 261 C 1142.177 248.358, 1142.021 245.825, 1145.923 241.923 C 1149.525 238.321, 1151.944 238.240, 1155.923 241.589 C 1159.509 244.606, 1159.848 247.652, 1157 251.273 C 1155.900 252.671, 1155 254.211, 1155 254.695 C 1155 255.179, 1157.286 257.808, 1160.079 260.538 L 1165.158 265.500 1168.467 261.713 C 1176.350 252.691, 1174.592 242.331, 1163.433 232.045 C 1155.178 224.436, 1147.128 222.964, 1139 227.579 M 350.458 252.862 C 347.752 254.513, 325.893 277.028, 325.241 278.836 C 325.098 279.232, 337.342 290.667, 352.450 304.247 L 379.918 328.938 384.937 323.719 C 387.698 320.848, 389.967 318.005, 389.978 317.400 C 389.990 316.795, 387.413 314.034, 384.250 311.265 C 381.087 308.495, 376.072 304.016, 373.104 301.311 L 367.708 296.391 371.699 292.196 C 373.894 289.888, 376.457 288, 377.395 288 C 380.143 288, 384.455 290.624, 390.679 296.084 C 393.881 298.892, 397.814 301.873, 399.419 302.708 L 402.338 304.226 408.062 297.863 C 411.210 294.363, 413.583 291.163, 413.334 290.750 C 413.085 290.337, 411.883 290, 410.663 290 C 409.430 290, 405.123 287.289, 400.972 283.900 C 389.424 274.473, 385.679 272.986, 379.754 275.477 C 378.252 276.108, 378.092 275.789, 378.611 273.195 C 380.488 263.812, 368.614 250.995, 358.054 251.004 C 355.385 251.006, 352.241 251.775, 350.458 252.862 M 348.960 270.656 C 346.734 272.666, 345.045 274.821, 345.207 275.444 C 345.582 276.892, 357.685 288, 358.888 288 C 359.386 288, 361.189 286.409, 362.896 284.465 C 367.831 278.845, 366.528 271.876, 359.901 268.449 C 355.603 266.226, 353.362 266.678, 348.960 270.656 M 1181.392 269.831 C 1171.047 273.407, 1147.536 293.108, 1142.998 302.005 C 1137.594 312.597, 1142.713 326.423, 1154.900 334.151 C 1165.971 341.173, 1179.114 335.929, 1200.317 316.029 C 1209.319 307.581, 1212.978 301.263, 1212.991 294.151 C 1213.003 287.160, 1210.834 282.760, 1203.967 275.845 C 1196.144 267.969, 1190.856 266.560, 1181.392 269.831 M 1186.500 284.408 C 1178.469 287.966, 1157.670 306.195, 1155.358 311.702 C 1153.167 316.920, 1157.009 323.016, 1162.473 322.991 C 1165.775 322.975, 1173.837 317.779, 1184.500 308.794 C 1199.172 296.430, 1202.014 290.923, 1196.545 285.455 C 1193.812 282.721, 1190.974 282.425, 1186.500 284.408 M 301.500 310.255 C 298.750 314.198, 296.359 317.753, 296.186 318.155 C 296.013 318.557, 305.688 330.729, 317.686 345.203 C 329.684 359.676, 340.465 372.752, 341.644 374.259 C 342.823 375.767, 344.173 376.988, 344.644 376.973 C 345.803 376.937, 354.192 365.055, 353.806 363.995 C 353.638 363.532, 351.677 361.206, 349.449 358.827 C 347.221 356.447, 345.072 353.962, 344.674 353.305 C 343.950 352.110, 353.497 338, 355.030 338 C 355.461 338, 358.751 339.318, 362.341 340.928 L 368.868 343.857 373.067 338.295 C 375.377 335.235, 377.319 332.081, 377.383 331.284 C 377.502 329.816, 375.669 328.985, 355 321.133 C 319.172 307.522, 310.286 304.184, 308.500 303.666 C 306.884 303.197, 305.539 304.463, 301.500 310.255 M 1215.621 319.465 C 1202.128 325.012, 1183.437 338.361, 1178.306 346.113 C 1174.113 352.450, 1173.940 359.958, 1177.812 367.627 C 1183.177 378.256, 1191.672 383.876, 1200.393 382.568 C 1204.937 381.887, 1216.322 376.907, 1217.428 375.116 C 1217.992 374.204, 1210.664 362, 1209.553 362 C 1209.347 362, 1206.327 363.350, 1202.840 364.999 C 1199.353 366.649, 1195.692 367.999, 1194.705 367.999 C 1191.977 368, 1188 363.470, 1188 360.362 C 1188 355.532, 1202.200 343.960, 1218.644 335.389 C 1226.602 331.241, 1230.112 331.055, 1232.927 334.635 C 1236.145 338.725, 1235.558 341.395, 1230.343 346.393 L 1225.686 350.855 1229.593 356.919 C 1231.742 360.254, 1233.950 362.984, 1234.500 362.985 C 1236.489 362.989, 1245.115 354.696, 1247.034 350.933 C 1252.121 340.962, 1245.620 325.478, 1233.895 319.635 C 1227.375 316.386, 1223.203 316.347, 1215.621 319.465 M 324.019 331.021 C 329.101 336.532, 333.618 341.264, 334.057 341.535 C 334.853 342.027, 340.921 334.289, 341.045 332.624 C 341.109 331.775, 317.642 321, 315.730 321 C 315.208 321, 318.938 325.509, 324.019 331.021 M 265.703 366.550 L 261.967 374.101 269.983 387.655 C 274.392 395.110, 278 401.391, 278 401.613 C 278 401.834, 272.607 399.312, 266.015 396.008 C 259.424 392.703, 253.886 390, 253.709 390 C 253.103 390, 246.630 403.963, 247.065 404.329 C 248.106 405.204, 311.423 437, 312.124 437 C 312.809 437, 320 425.007, 320 423.864 C 320 423.620, 315.595 421.253, 310.211 418.604 C 302.113 414.619, 300.035 413.115, 298.181 409.894 L 295.940 406 312.458 406 L 328.975 406 332.487 399.025 C 334.419 395.189, 336 391.574, 336 390.992 C 336 390.270, 328.512 390.024, 312.411 390.217 L 288.822 390.500 279.661 374.775 C 274.622 366.127, 270.261 359.039, 269.969 359.025 C 269.677 359.011, 267.757 362.398, 265.703 366.550 M 1243.909 370.649 C 1214.582 386.771, 1197.518 396.228, 1197.135 396.570 C 1196.587 397.060, 1203.988 410.004, 1204.799 409.974 C 1205.185 409.959, 1208.650 408.252, 1212.500 406.179 C 1225.090 399.402, 1268.488 375.633, 1268.987 375.241 C 1269.494 374.844, 1262.951 362.088, 1261.910 361.444 C 1261.584 361.243, 1253.483 365.385, 1243.909 370.649 M 1257 404.553 C 1246.825 406.380, 1231.892 408.871, 1223.817 410.088 C 1215.741 411.304, 1208.595 412.632, 1207.937 413.039 C 1207.067 413.577, 1207.634 415.716, 1210.018 420.889 C 1211.821 424.800, 1213.342 427.999, 1213.398 427.999 C 1213.454 427.998, 1216.869 427.355, 1220.988 426.570 C 1225.106 425.784, 1228.558 425.225, 1228.659 425.326 C 1229.372 426.039, 1235.995 440.654, 1235.976 441.472 C 1235.963 442.037, 1233.273 444.300, 1230 446.500 C 1226.727 448.700, 1224.037 450.796, 1224.024 451.157 C 1223.998 451.875, 1229.885 465.218, 1230.499 465.833 C 1230.708 466.041, 1235.519 462.414, 1241.189 457.771 C 1246.860 453.128, 1260.050 442.458, 1270.500 434.059 C 1280.950 425.661, 1289.638 418.424, 1289.806 417.978 C 1289.974 417.531, 1288.449 413.529, 1286.417 409.083 C 1282.761 401.085, 1282.684 401.001, 1279.111 401.115 C 1277.125 401.178, 1267.175 402.725, 1257 404.553 M 1263 417.567 C 1259.425 418.342, 1253.286 419.690, 1249.358 420.564 L 1242.216 422.153 1244.745 428.014 L 1247.274 433.876 1254.887 428.272 C 1259.074 425.190, 1264.075 421.530, 1266 420.139 C 1272.668 415.322, 1272.809 415.442, 1263 417.567 M 239.451 420.495 C 238.653 422.423, 237.315 425.655, 236.477 427.677 C 235.639 429.699, 235.302 431.677, 235.727 432.072 C 236.152 432.466, 239.650 433.929, 243.500 435.321 C 268.310 444.295, 287.462 452.085, 289.560 454.056 C 292.829 457.127, 292.821 461.880, 289.542 464.960 C 286.439 467.876, 282.538 467.386, 270.212 462.535 C 257.920 457.697, 229.964 447, 229.611 447 C 228.686 447, 223.909 461.286, 224.630 461.895 C 225.109 462.299, 232.475 465.264, 241 468.484 C 249.525 471.704, 261 476.129, 266.500 478.317 C 274.405 481.462, 277.895 482.317, 283.156 482.398 C 289.140 482.490, 290.202 482.193, 293.656 479.461 C 298.240 475.838, 303.730 465.510, 304.625 458.826 C 305.546 451.947, 304.327 447.368, 300.425 443.049 C 296.252 438.430, 291.891 436.308, 268.500 427.516 C 258.600 423.795, 248.340 419.905, 245.701 418.871 L 240.902 416.991 239.451 420.495 M 1291.250 437.767 C 1285.226 439.514, 1285.118 439.876, 1288.152 448.196 C 1289.408 451.642, 1289.928 454.440, 1289.402 454.922 C 1288.906 455.377, 1276.125 459.933, 1261 465.047 C 1245.875 470.162, 1233.341 474.465, 1233.147 474.609 C 1232.827 474.848, 1236.760 487.593, 1237.637 489.159 C 1237.840 489.522, 1250.976 485.411, 1266.829 480.024 L 1295.652 470.230 1298.072 477.208 C 1299.403 481.046, 1300.759 484.351, 1301.085 484.553 C 1302.100 485.180, 1312.215 481.602, 1312.653 480.462 C 1313.211 479.007, 1298.538 436.646, 1297.398 436.422 C 1296.904 436.325, 1294.138 436.930, 1291.250 437.767 M 1299 494.984 C 1291.025 497.062, 1275.500 501.105, 1264.500 503.968 C 1253.500 506.832, 1244.362 509.311, 1244.194 509.477 C 1243.923 509.744, 1246.434 520.579, 1247.487 523.687 C 1247.769 524.520, 1254.083 523.263, 1268.694 519.465 C 1280.137 516.490, 1296.186 512.377, 1304.358 510.324 L 1319.216 506.592 1318.630 502.546 C 1317.667 495.897, 1315.984 490.993, 1314.703 491.103 C 1314.041 491.160, 1306.975 492.907, 1299 494.984 M 211.014 505.750 C 210.393 508.913, 208.486 517.913, 206.776 525.750 C 205.066 533.588, 203.876 540.209, 204.132 540.465 C 204.387 540.721, 214.025 543.003, 225.548 545.538 C 237.072 548.072, 253.137 551.626, 261.248 553.436 L 275.997 556.726 276.955 553.113 C 279.043 545.240, 284.999 516.932, 285 514.880 C 285 514.222, 273.023 511.637, 272.495 512.181 C 272.324 512.356, 270.952 518.125, 269.447 525 C 267.941 531.875, 266.614 537.623, 266.498 537.773 C 266.177 538.189, 249.980 534.313, 249.333 533.667 C 249.023 533.356, 249.950 528.058, 251.393 521.893 C 252.836 515.728, 253.897 510.564, 253.751 510.418 C 253.605 510.272, 250.642 509.495, 247.167 508.692 C 242.578 507.632, 240.747 507.543, 240.481 508.366 C 240.279 508.990, 239.185 514.191, 238.050 519.924 C 236.915 525.657, 235.786 530.547, 235.541 530.792 C 235.010 531.323, 222.484 528.917, 220.997 527.998 C 220.309 527.573, 220.810 523.750, 222.479 516.686 C 225.960 501.955, 226.068 502.491, 219.333 501.138 C 216.216 500.512, 213.323 500, 212.904 500 C 212.485 500, 211.634 502.587, 211.014 505.750 M 1295.500 523.604 C 1270.351 527.203, 1259.245 531.679, 1255.047 539.909 C 1251.002 547.836, 1253.092 563.618, 1259.090 570.449 C 1263.894 575.922, 1269.126 577.376, 1281.763 576.752 C 1292.708 576.211, 1308.282 573.094, 1315.504 569.998 C 1320.996 567.644, 1326.001 563.243, 1327.636 559.329 C 1329.364 555.192, 1329.328 542.665, 1327.573 537.748 C 1325.642 532.336, 1321.664 527.543, 1317.439 525.538 C 1313.785 523.804, 1301.604 522.730, 1295.500 523.604 M 1288 541.024 C 1270.007 544.216, 1265 546.762, 1265 552.721 C 1265 560.521, 1269.606 562.614, 1283.081 560.940 C 1300.280 558.803, 1311.309 555.840, 1315.213 552.307 C 1317.864 549.908, 1317.528 544.437, 1314.545 541.455 C 1312.400 539.309, 1311.236 539.010, 1305.295 539.081 C 1301.558 539.125, 1293.775 540, 1288 541.024 M 201.375 556.202 C 201.101 556.645, 200.541 560.153, 200.131 563.997 C 199.501 569.891, 199.628 571.059, 200.942 571.443 C 201.799 571.694, 208.049 572.440, 214.831 573.100 L 227.162 574.299 226.509 580.400 C 226.150 583.755, 225.633 587.288, 225.361 588.250 C 224.766 590.352, 223.130 590.386, 209 588.591 C 203.225 587.858, 198.208 587.537, 197.851 587.879 C 197.494 588.221, 196.888 591.743, 196.504 595.707 C 195.675 604.266, 193.653 603.253, 216 605.477 C 224.525 606.325, 239.960 607.967, 250.300 609.126 C 260.641 610.285, 269.302 611.031, 269.549 610.784 C 269.795 610.538, 270.283 606.953, 270.633 602.818 L 271.268 595.299 255.120 593.483 L 238.972 591.666 239.442 588.583 C 239.701 586.887, 240.191 583.319, 240.532 580.653 C 241.146 575.851, 241.182 575.811, 244.326 576.360 C 252.200 577.736, 272.262 579.134, 272.996 578.358 C 273.443 577.886, 273.964 574.350, 274.154 570.500 L 274.500 563.500 262 562.180 C 255.125 561.454, 238.784 559.630, 225.687 558.128 C 212.589 556.625, 201.649 555.759, 201.375 556.202 M 1300.500 584.535 C 1290.600 585.234, 1277.166 586.122, 1270.646 586.508 L 1258.792 587.210 1259.396 590.230 C 1259.728 591.891, 1260 595.242, 1260 597.676 L 1260 602.101 1269.250 601.482 C 1274.338 601.142, 1284.350 600.445, 1291.500 599.934 C 1298.650 599.423, 1305.400 599.013, 1306.500 599.022 C 1308.468 599.040, 1305.054 600.587, 1275.787 612.946 L 1261.075 619.159 1261.666 627.329 C 1261.991 631.823, 1262.536 635.783, 1262.878 636.128 C 1263.681 636.939, 1335.263 633.029, 1336.233 632.121 C 1336.636 631.743, 1336.678 628.352, 1336.326 624.585 L 1335.686 617.735 1325.093 618.349 C 1319.267 618.687, 1308.875 619.220, 1302 619.535 L 1289.500 620.107 1298.500 616.219 C 1303.450 614.081, 1313.733 609.703, 1321.352 606.489 L 1335.204 600.647 1334.613 597.073 C 1334.288 595.108, 1334.017 591.138, 1334.011 588.250 L 1334 583 1326.250 583.132 C 1321.987 583.205, 1310.400 583.836, 1300.500 584.535 M 195 637 C 195 649.650, 195 660.337, 195 660.750 C 195 661.163, 197.813 661.500, 201.250 661.500 L 207.500 661.500 207.794 653.663 L 208.087 645.825 238.544 646.163 L 269.001 646.500 269.001 638.750 C 269 634.487, 268.887 630.904, 268.750 630.787 C 268.613 630.670, 255 630.333, 238.500 630.037 L 208.500 629.500 208.208 621.750 L 207.916 614 201.458 614 L 195 614 195 637 M 267.023 838.993 C 250.811 850.471, 237.402 860.293, 237.227 860.819 C 236.667 862.499, 243.215 876, 244.589 876 C 246.159 876, 259.549 872.271, 277.395 866.864 C 284.487 864.715, 290.452 863.118, 290.649 863.316 C 290.847 863.513, 281.778 869.827, 270.497 877.345 L 249.985 891.015 254.024 899.047 C 256.245 903.465, 258.421 906.858, 258.859 906.587 C 259.298 906.316, 268.396 903.846, 279.078 901.099 C 289.760 898.351, 304.525 894.527, 311.888 892.600 L 325.276 889.096 308.388 905.267 C 299.100 914.161, 287.733 925.089, 283.129 929.550 L 274.757 937.662 279.537 944.581 C 282.166 948.386, 284.412 951.629, 284.528 951.786 C 284.644 951.944, 291.660 948.869, 300.119 944.953 C 308.579 941.038, 318.875 936.300, 323 934.424 L 330.500 931.013 326.915 934.256 C 302.895 955.989, 294 964.373, 294 965.278 C 294 966.954, 302.108 979, 303.236 979 C 304.119 979, 347.945 960.619, 361.655 954.499 L 366.810 952.198 346.333 978.704 C 335.071 993.282, 325.617 1005.835, 325.323 1006.600 C 324.713 1008.190, 334.709 1019.564, 336.556 1019.382 C 337.215 1019.317, 344.447 1014.861, 352.627 1009.480 C 360.807 1004.099, 369.947 998.122, 372.937 996.198 L 378.374 992.699 371.955 1000.600 C 368.425 1004.945, 361.366 1013.592, 356.268 1019.814 C 351.171 1026.037, 347 1031.447, 347 1031.836 C 347 1032.225, 349.587 1035.334, 352.750 1038.745 L 358.500 1044.947 390.250 1025.251 C 407.712 1014.419, 421.981 1005.318, 421.957 1005.028 C 421.933 1004.738, 419.751 1002.086, 417.107 999.136 L 412.301 993.772 391.552 1007.454 C 380.139 1014.979, 370.676 1020.992, 370.521 1020.818 C 370.366 1020.643, 377.161 1012.019, 385.620 1001.654 C 394.079 991.289, 401 982.487, 401 982.095 C 401 981.702, 398.837 978.966, 396.194 976.015 L 391.389 970.650 381.444 977.169 C 355.544 994.148, 347.626 999.094, 349.109 997.370 C 358.377 986.598, 380 959.672, 380 958.905 C 380 958.360, 378.043 955.796, 375.650 953.207 C 373.258 950.618, 369.675 945.930, 367.688 942.789 L 364.074 937.077 358.787 939.427 C 355.879 940.719, 345.189 945.654, 335.031 950.392 C 324.874 955.131, 317.224 958.397, 318.031 957.648 C 318.839 956.900, 325.350 950.976, 332.500 944.483 C 339.650 937.990, 347.618 930.725, 350.207 928.339 L 354.914 924 351.207 918.011 C 349.168 914.717, 346.878 912.017, 346.118 912.011 C 344.896 912.001, 335.595 916.079, 308.750 928.394 C 304.488 930.350, 301 931.792, 301 931.599 C 301 931.406, 307.413 925.455, 315.250 918.375 C 323.087 911.296, 331.392 903.761, 333.705 901.631 L 337.911 897.758 334.181 892.129 C 332.129 889.033, 329.142 883.688, 327.541 880.250 C 325.941 876.813, 324.306 874, 323.907 874 C 323.509 874, 317.629 875.641, 310.841 877.648 C 285.620 885.102, 275.793 887.810, 276.635 887.073 C 277.111 886.657, 286.050 880.566, 296.500 873.539 C 306.950 866.511, 315.912 860.380, 316.415 859.916 C 317.606 858.815, 312.194 846, 310.538 846 C 309.857 846, 299.023 848.925, 286.462 852.500 C 273.901 856.075, 263.370 858.993, 263.062 858.984 C 262.753 858.976, 271.725 852.863, 283 845.401 C 294.275 837.938, 303.682 831.650, 303.905 831.428 C 304.689 830.645, 298.761 818.001, 297.637 818.062 C 297.012 818.096, 283.235 827.515, 267.023 838.993 M 1230.137 826.155 C 1228.412 830.062, 1227 833.662, 1227 834.156 C 1227 834.649, 1231.051 841.105, 1236.001 848.502 C 1242.796 858.655, 1244.451 861.733, 1242.751 861.059 C 1241.513 860.569, 1235.816 858.102, 1230.090 855.577 C 1224.365 853.052, 1219.454 851.213, 1219.177 851.489 C 1218.500 852.166, 1212.970 865.318, 1213.266 865.546 C 1213.395 865.645, 1217.100 867.317, 1221.500 869.262 C 1225.900 871.207, 1240.788 877.793, 1254.584 883.899 C 1268.380 890.004, 1279.987 895, 1280.376 895 C 1281.049 895, 1287.008 882.535, 1286.993 881.157 C 1286.989 880.796, 1282.675 878.700, 1277.405 876.500 C 1269.876 873.357, 1267.307 871.754, 1265.412 869.018 C 1264.085 867.103, 1263 865.190, 1263 864.768 C 1263 864.346, 1266.982 864, 1271.849 864 C 1276.716 864, 1284.079 863.714, 1288.211 863.365 L 1295.725 862.730 1298.866 855.202 C 1300.595 851.062, 1301.783 847.450, 1301.509 847.175 C 1301.020 846.687, 1267.916 848.565, 1259 849.587 L 1254.500 850.103 1244.573 835.001 C 1239.113 826.695, 1234.337 819.708, 1233.960 819.475 C 1233.583 819.242, 1231.863 822.248, 1230.137 826.155 M 1206.496 877.143 C 1204.516 880.521, 1203.096 883.784, 1203.341 884.393 C 1203.586 885.002, 1208.897 888.397, 1215.143 891.937 C 1243.161 907.818, 1252.195 913.367, 1253.654 915.595 C 1256.594 920.082, 1252.666 927, 1247.179 927 C 1245.382 927, 1235.375 921.861, 1219.618 912.846 C 1198.658 900.854, 1194.680 898.907, 1193.574 900.096 C 1191.691 902.122, 1186.592 911.926, 1187.138 912.471 C 1188.291 913.625, 1228.180 936.459, 1233.797 939.181 C 1247.382 945.764, 1257.073 941.907, 1264.854 926.819 C 1268.632 919.494, 1269.022 912.924, 1266.029 907.057 C 1263.618 902.332, 1259.304 898.686, 1249.776 893.324 C 1245.774 891.071, 1235.394 885.127, 1226.708 880.114 C 1218.022 875.101, 1210.731 871, 1210.506 871 C 1210.280 871, 1208.476 873.764, 1206.496 877.143 M 1163.238 946.054 C 1158.441 948.493, 1152.129 955.186, 1149.356 960.775 C 1146.968 965.585, 1146.997 974.323, 1149.416 978.907 C 1155.274 990.008, 1181.473 1010.563, 1192.290 1012.544 C 1198.567 1013.693, 1204.604 1011.356, 1210.400 1005.533 C 1224.147 991.723, 1223.182 979.348, 1207.247 965.081 C 1186.293 946.320, 1173.551 940.812, 1163.238 946.054 M 1225.642 955.485 C 1223.639 958.501, 1222 961.382, 1222 961.887 C 1222 962.789, 1231.471 969.476, 1234.267 970.549 C 1235.188 970.902, 1236.981 969.221, 1239.345 965.789 C 1241.355 962.871, 1243 960.184, 1243 959.819 C 1243 959.234, 1230.391 950, 1229.594 950 C 1229.423 950, 1227.644 952.468, 1225.642 955.485 M 1163.073 961.635 C 1158.215 967.810, 1161.914 973.430, 1180.362 987.905 C 1195.710 999.948, 1201.413 1000.956, 1205.823 992.406 C 1207.737 988.695, 1203.777 982.811, 1193.639 974.304 C 1175.334 958.943, 1167.684 955.773, 1163.073 961.635 M 1128.825 986.355 C 1120.593 989.396, 1112.893 997.933, 1111.101 1006.006 C 1108.932 1015.776, 1112.798 1023.057, 1128.380 1038.551 C 1141.323 1051.420, 1146.827 1054.989, 1154.933 1055.768 C 1161.124 1056.362, 1167.491 1053.321, 1173.499 1046.897 C 1183.431 1036.280, 1183.523 1027.844, 1173.846 1015.300 C 1171.597 1012.385, 1169.232 1010, 1168.591 1010 C 1167.299 1010, 1158 1019.102, 1158 1020.366 C 1158 1020.805, 1159.549 1023.054, 1161.442 1025.364 C 1166.044 1030.980, 1167.337 1034.498, 1165.837 1037.315 C 1161.498 1045.462, 1155.097 1042.972, 1139.115 1026.924 C 1124.585 1012.333, 1121.978 1006.893, 1127.189 1002.039 C 1130.331 999.112, 1133.199 999.505, 1138.563 1003.600 L 1143.279 1007.200 1148.889 1001.556 L 1154.500 995.912 1151 992.926 C 1143.223 986.291, 1135.330 983.952, 1128.825 986.355 M 417.294 1048.290 C 400.681 1060.506, 387.072 1070.950, 387.052 1071.500 C 387.033 1072.050, 389.729 1074.663, 393.044 1077.307 L 399.072 1082.113 405.133 1077.049 L 411.194 1071.984 416.347 1076.111 C 419.181 1078.381, 422.461 1080.972, 423.635 1081.869 L 425.770 1083.500 422.385 1090.225 C 420.523 1093.924, 419.010 1097.299, 419.021 1097.725 C 419.033 1098.151, 420.721 1099.729, 422.771 1101.232 C 424.822 1102.735, 427.684 1104.871, 429.131 1105.979 L 431.762 1107.994 440.546 1088.247 C 445.377 1077.386, 451.221 1064.225, 453.533 1059 C 455.846 1053.775, 458.894 1046.919, 460.308 1043.764 L 462.877 1038.028 455.517 1032.014 C 451.469 1028.706, 448.009 1026.018, 447.829 1026.040 C 447.648 1026.062, 433.907 1036.075, 417.294 1048.290 M 1067.834 1039.340 C 1061.921 1041.544, 1054.182 1047.833, 1051.272 1052.799 C 1047.500 1059.234, 1047.611 1065.461, 1051.647 1074 C 1058.031 1087.505, 1073.489 1106.122, 1081.566 1110.032 C 1089.376 1113.813, 1098.326 1111.806, 1106.829 1104.368 C 1119.660 1093.144, 1119 1082.819, 1104.122 1062.006 C 1097.200 1052.321, 1090.379 1044.941, 1085.161 1041.488 C 1080.445 1038.367, 1072.940 1037.437, 1067.834 1039.340 M 375.489 1049.011 L 369.543 1055.020 374.829 1060.260 L 380.115 1065.500 386.125 1059.151 C 389.431 1055.659, 391.983 1052.734, 391.797 1052.651 C 391.610 1052.568, 389.202 1050.363, 386.446 1047.752 L 381.434 1043.003 375.489 1049.011 M 433.154 1054.209 L 421.809 1063.396 425.154 1066.222 C 431.960 1071.972, 431.293 1072.383, 438.488 1058.025 C 442.077 1050.861, 444.899 1045.005, 444.757 1045.011 C 444.616 1045.018, 439.395 1049.157, 433.154 1054.209 M 468.963 1067.250 C 463.278 1076.188, 454.373 1090.165, 449.174 1098.310 C 443.817 1106.702, 440.106 1113.481, 440.610 1113.953 C 441.100 1114.411, 444.083 1116.420, 447.241 1118.418 L 452.981 1122.050 457.316 1115.275 C 459.700 1111.549, 463.436 1105.685, 465.619 1102.244 L 469.589 1095.988 474.201 1098.913 C 476.738 1100.522, 479.107 1102.762, 479.466 1103.892 C 480.220 1106.268, 478.065 1111.434, 472.127 1121.484 C 469.857 1125.325, 468 1129.157, 468 1130 C 468 1131.477, 479.920 1140, 481.986 1140 C 482.544 1140, 483 1138.778, 483 1137.285 C 483 1135.791, 485.323 1130.544, 488.162 1125.625 C 493.579 1116.240, 495.285 1109.270, 493.146 1105.273 C 492.161 1103.433, 492.420 1103.207, 496.070 1102.717 C 501.340 1102.011, 506.326 1098.081, 510.064 1091.687 C 512.669 1087.233, 513.047 1085.701, 512.742 1080.848 C 512.239 1072.854, 509.625 1069.970, 493.590 1059.721 C 486.085 1054.925, 479.799 1051, 479.622 1051 C 479.445 1051, 474.648 1058.313, 468.963 1067.250 M 1065.923 1054.923 C 1064.315 1056.531, 1063 1058.799, 1063 1059.963 C 1063 1064.781, 1074.453 1082.367, 1084.028 1092.250 C 1088.736 1097.110, 1090.144 1098, 1093.125 1098 C 1098.391 1098, 1101.442 1094.300, 1101.118 1088.303 C 1100.943 1085.046, 1087.484 1065.432, 1080.495 1058.250 C 1073.369 1050.926, 1070.561 1050.285, 1065.923 1054.923 M 1128.271 1064.238 C 1125.435 1066.582, 1123.093 1068.725, 1123.066 1069 C 1123.004 1069.639, 1133.037 1081.432, 1133.873 1081.704 C 1134.218 1081.816, 1136.857 1079.791, 1139.737 1077.204 L 1144.973 1072.500 1139.864 1066.500 C 1137.053 1063.200, 1134.456 1060.382, 1134.091 1060.238 C 1133.726 1060.094, 1131.107 1061.894, 1128.271 1064.238 M 1019.035 1071.202 C 1011.875 1073.951, 1003.426 1082.212, 1002.449 1087.420 C 1000.769 1096.373, 1004.481 1107.730, 1014.241 1123.500 C 1021.068 1134.530, 1025.354 1139.537, 1030.605 1142.615 C 1034.321 1144.792, 1035.975 1145.164, 1040.293 1144.790 C 1047.550 1144.163, 1054.824 1139.510, 1058.293 1133.277 C 1059.755 1130.650, 1060.969 1128.950, 1060.991 1129.500 C 1061.120 1132.767, 1062.733 1133.008, 1067.316 1130.447 C 1069.882 1129.013, 1072.187 1127.506, 1072.439 1127.099 C 1072.691 1126.691, 1070.521 1122.340, 1067.617 1117.429 C 1064.714 1112.518, 1060.194 1104.787, 1057.574 1100.250 C 1054.954 1095.712, 1052.515 1092.155, 1052.155 1092.344 C 1045.939 1095.612, 1032.791 1103.530, 1032.323 1104.286 C 1031.628 1105.412, 1036.001 1114, 1037.269 1114 C 1037.715 1114, 1039.800 1113.123, 1041.902 1112.050 L 1045.724 1110.100 1048.506 1115.599 C 1051.054 1120.636, 1051.187 1121.432, 1050.090 1125.094 C 1047.833 1132.626, 1041.202 1132.569, 1034.710 1124.963 C 1026.993 1115.922, 1017.071 1096.545, 1017.024 1090.424 C 1016.996 1086.836, 1020.504 1083, 1023.812 1083 C 1025.012 1083, 1027.780 1084.614, 1029.964 1086.586 L 1033.933 1090.172 1039.967 1086.855 C 1043.285 1085.031, 1046 1082.969, 1046 1082.272 C 1046 1080.204, 1038.929 1073.005, 1034.858 1070.928 C 1030.070 1068.485, 1025.925 1068.557, 1019.035 1071.202 M 481.028 1078.146 C 475.350 1087.089, 475.291 1086.653, 482.663 1090.081 C 485.675 1091.481, 487.472 1091.769, 489.163 1091.123 C 493.892 1089.315, 497.513 1082.894, 496.371 1078.342 C 495.811 1076.110, 488.911 1070, 486.950 1070 C 486.538 1070, 483.873 1073.666, 481.028 1078.146 M 528.248 1088.106 C 522.170 1091.115, 516.279 1098.172, 510.321 1109.582 C 496.355 1136.331, 496.761 1149.881, 511.736 1156.737 C 516.042 1158.708, 518.311 1159.139, 522.536 1158.789 C 527.402 1158.385, 527.801 1158.504, 526.943 1160.107 C 526.424 1161.076, 526 1162.139, 526 1162.470 C 526 1163.149, 534.631 1167, 536.152 1167 C 537 1167, 554 1133.306, 554 1131.627 C 554 1130.868, 534.059 1121, 532.525 1121 C 531.483 1121, 527 1129.013, 527 1130.875 C 527 1131.327, 528.800 1132.508, 531 1133.500 C 533.200 1134.492, 535 1135.475, 535 1135.685 C 535 1135.895, 533.917 1138.203, 532.594 1140.814 C 529.827 1146.276, 526.771 1148.290, 521.954 1147.826 C 513.672 1147.030, 514.288 1137.925, 523.939 1118.494 C 530.638 1105.005, 534.979 1099.924, 539.923 1099.783 C 545.514 1099.624, 547.845 1104.601, 545.737 1112.196 C 545.029 1114.749, 545.343 1115.061, 551.618 1118.056 C 558.923 1121.543, 559.146 1121.470, 560.991 1115 C 562.425 1109.970, 562.230 1103.345, 560.551 1100.099 C 557.014 1093.258, 544.925 1086.026, 537 1086.011 C 534.422 1086.005, 530.684 1086.901, 528.248 1088.106 M 981.250 1092.775 C 977.813 1094.193, 975 1095.752, 975 1096.240 C 975 1096.728, 977.077 1101.936, 979.616 1107.814 C 982.155 1113.691, 986.196 1123.133, 988.596 1128.795 L 992.960 1139.091 984.755 1130.295 C 980.243 1125.458, 972.456 1117.287, 967.450 1112.138 L 958.350 1102.776 950.425 1106.238 C 946.066 1108.141, 942.612 1110.214, 942.748 1110.844 C 942.885 1111.474, 944.743 1115.929, 946.877 1120.745 C 949.011 1125.560, 953.008 1134.675, 955.760 1141 C 968.925 1171.263, 971.278 1176.548, 971.866 1177.175 C 972.383 1177.725, 983.579 1173.651, 984.866 1172.445 C 985.486 1171.863, 983.792 1167.813, 968.577 1133.500 L 965.916 1127.500 968.786 1130.500 C 970.364 1132.150, 975.446 1137.564, 980.078 1142.531 C 984.710 1147.498, 991.386 1154.623, 994.913 1158.364 L 1001.326 1165.166 1009.154 1161.833 C 1013.460 1160, 1016.987 1158.209, 1016.992 1157.854 C 1017.009 1156.518, 992.680 1100.126, 989.248 1093.549 L 987.500 1090.198 981.250 1092.775 M 574.070 1106.139 C 573.526 1107.438, 570.853 1114.575, 568.129 1122 C 565.405 1129.425, 560.211 1143.482, 556.588 1153.238 C 552.965 1162.994, 550 1171.579, 550 1172.316 C 550 1173.095, 553.654 1174.952, 558.750 1176.762 C 567.908 1180.015, 585.348 1186.375, 588.108 1187.468 C 589.362 1187.965, 590.218 1186.765, 591.992 1182.020 C 593.244 1178.673, 594.095 1175.777, 593.884 1175.584 C 593.673 1175.391, 589 1173.590, 583.500 1171.583 C 578 1169.575, 572.489 1167.508, 571.252 1166.989 L 569.005 1166.045 571.988 1157.870 C 573.629 1153.374, 575.147 1149.519, 575.362 1149.304 C 575.577 1149.089, 580.538 1150.733, 586.386 1152.957 C 592.234 1155.181, 597.352 1156.999, 597.759 1156.998 C 598.708 1156.995, 603.077 1145.934, 602.499 1144.999 C 602.260 1144.612, 597.213 1142.596, 591.282 1140.519 C 585.352 1138.442, 580.374 1136.637, 580.220 1136.508 C 580.067 1136.379, 581.146 1133.023, 582.619 1129.049 C 585.712 1120.705, 584.360 1120.918, 599.325 1126.416 C 604.729 1128.401, 609.549 1129.779, 610.035 1129.478 C 611.057 1128.847, 614.571 1118.197, 613.929 1117.676 C 613.213 1117.095, 579.661 1104.840, 577.279 1104.291 C 575.620 1103.908, 574.808 1104.375, 574.070 1106.139 M 913 1119.067 L 904.500 1121.845 904.792 1139.672 C 905.151 1161.645, 906.756 1197.089, 907.421 1197.754 C 907.961 1198.294, 921.079 1195.043, 922.195 1194.092 C 922.578 1193.766, 922.556 1190.005, 922.146 1185.734 L 921.402 1177.969 925.451 1176.935 C 927.678 1176.366, 931.493 1175.248, 933.928 1174.450 C 936.364 1173.653, 938.614 1173.001, 938.928 1173.001 C 939.243 1173.002, 941.075 1175.926, 943 1179.500 C 944.997 1183.208, 947.168 1185.998, 948.055 1185.999 C 948.911 1185.999, 952.610 1184.987, 956.277 1183.750 L 962.944 1181.500 960.094 1177 C 958.527 1174.525, 949.708 1160.350, 940.496 1145.500 C 931.284 1130.650, 923.242 1118.003, 922.624 1117.395 C 921.801 1116.586, 919.220 1117.034, 913 1119.067 M 618.090 1123.750 C 615.821 1132.372, 601.709 1187.671, 601.284 1189.606 C 600.875 1191.469, 601.597 1191.907, 607.535 1193.398 C 611.228 1194.326, 614.530 1194.806, 614.874 1194.465 C 615.218 1194.124, 618.033 1183.959, 621.130 1171.876 C 624.226 1159.794, 627.038 1149.628, 627.380 1149.287 C 627.721 1148.946, 628.012 1151.329, 628.026 1154.583 C 628.055 1161.220, 631.478 1198.847, 632.100 1199.369 C 633.311 1200.384, 648.537 1203.849, 649.080 1203.233 C 650.419 1201.714, 667.132 1132.736, 666.335 1132.023 C 665.639 1131.402, 653.008 1127.934, 652.996 1128.362 C 652.976 1129.105, 641.847 1172.487, 641.617 1172.716 C 641.448 1172.886, 640.271 1161.992, 639.001 1148.509 L 636.692 1123.994 632.596 1122.933 C 630.343 1122.349, 626.925 1121.453, 625 1120.942 C 619.646 1119.518, 619.151 1119.719, 618.090 1123.750 M 867.563 1130.637 C 856.048 1133.059, 846.455 1135.212, 846.244 1135.422 C 845.778 1135.889, 847.801 1147.134, 848.472 1147.806 C 848.736 1148.070, 852.346 1147.611, 856.493 1146.785 C 863.936 1145.304, 864.040 1145.312, 864.517 1147.392 C 865.160 1150.197, 870.421 1175.392, 873.622 1191 C 875.032 1197.875, 876.482 1203.809, 876.843 1204.187 C 877.456 1204.828, 890.886 1202.448, 891.796 1201.537 C 892.023 1201.310, 890.558 1193.334, 888.540 1183.812 C 881.479 1150.506, 879.990 1142.825, 880.448 1142.084 C 880.702 1141.674, 884.080 1140.740, 887.955 1140.009 C 891.830 1139.277, 895 1138.376, 895 1138.006 C 895 1137.636, 894.488 1134.784, 893.862 1131.667 C 892.896 1126.858, 892.404 1126.018, 890.612 1126.117 C 889.450 1126.181, 879.078 1128.215, 867.563 1130.637 M 670.507 1132.988 C 670.271 1133.371, 669.672 1136.268, 669.177 1139.426 C 668.154 1145.948, 667.705 1145.510, 676.882 1146.938 C 680.393 1147.485, 683.483 1148.150, 683.749 1148.416 C 684.016 1148.683, 682.381 1161.020, 680.117 1175.833 C 675.878 1203.566, 675.465 1207.556, 676.750 1208.339 C 677.163 1208.591, 680.532 1209.119, 684.237 1209.513 C 689.532 1210.077, 691.062 1209.938, 691.382 1208.865 C 691.606 1208.114, 693.680 1194.675, 695.991 1179 C 698.301 1163.325, 700.276 1150.410, 700.379 1150.300 C 700.483 1150.190, 703.833 1150.584, 707.824 1151.176 C 711.815 1151.769, 715.289 1152.045, 715.544 1151.790 C 716.155 1151.178, 718.233 1139.899, 717.811 1139.478 C 717.026 1138.692, 670.893 1132.363, 670.507 1132.988 M 918.367 1139.500 C 918.658 1142.250, 919.206 1148.888, 919.585 1154.250 C 919.964 1159.612, 920.581 1164, 920.956 1164 C 921.330 1164, 924.006 1163.297, 926.901 1162.437 C 930.585 1161.343, 932.007 1160.460, 931.637 1159.496 C 931.346 1158.738, 928.122 1152.804, 924.473 1146.309 L 917.838 1134.500 918.367 1139.500 M 819.530 1138.163 C 810.747 1139.232, 803.353 1140.314, 803.099 1140.568 C 802.845 1140.822, 804.069 1153.961, 805.821 1169.765 C 807.572 1185.569, 809.295 1201.777, 809.649 1205.782 C 810.003 1209.786, 810.664 1213.293, 811.118 1213.573 C 812.058 1214.154, 851.653 1209.851, 852.887 1209.034 C 853.675 1208.512, 852.842 1197.482, 851.951 1196.645 C 851.703 1196.412, 845.672 1196.831, 838.549 1197.576 C 831.425 1198.321, 825.505 1198.834, 825.392 1198.715 C 825.280 1198.597, 824.785 1194.549, 824.293 1189.719 C 823.276 1179.740, 822.497 1180.651, 833 1179.538 C 847.168 1178.038, 847 1178.098, 847 1174.511 C 847 1172.718, 846.708 1169.790, 846.351 1168.005 L 845.702 1164.760 840.601 1165.343 C 837.795 1165.663, 832.511 1166.225, 828.858 1166.590 C 821.256 1167.350, 821.595 1167.720, 820.498 1157.456 L 819.851 1151.411 832.676 1149.956 L 845.500 1148.500 845.187 1144 C 844.660 1136.430, 844.350 1135.987, 839.683 1136.110 C 837.382 1136.171, 828.314 1137.095, 819.530 1138.163 M 720.624 1161.839 C 719.688 1174.303, 718.732 1186.525, 718.500 1189 C 717.237 1202.447, 716.884 1212.810, 717.671 1213.296 C 718.160 1213.599, 721.697 1213.961, 725.530 1214.100 L 732.500 1214.354 733.127 1208.427 C 733.473 1205.167, 734.025 1198.450, 734.355 1193.500 C 734.686 1188.550, 735.715 1174.712, 736.643 1162.749 C 737.571 1150.786, 738.144 1140.834, 737.915 1140.635 C 737.687 1140.436, 734.086 1140.027, 729.913 1139.726 L 722.327 1139.179 720.624 1161.839 M 746.479 1178.211 C 746.883 1198.720, 747.278 1215.565, 747.356 1215.645 C 747.435 1215.725, 750.793 1215.550, 754.818 1215.256 L 762.137 1214.721 761.528 1191.111 L 760.920 1167.500 765.402 1179 C 767.867 1185.325, 771.879 1195.900, 774.317 1202.500 L 778.750 1214.500 788.033 1214.790 L 797.316 1215.079 796.662 1199.290 C 796.301 1190.605, 796.005 1173.938, 796.003 1162.250 L 796 1141 788.434 1141 L 780.867 1141 781.184 1164.509 C 781.358 1177.440, 781.383 1187.677, 781.240 1187.259 C 781.098 1186.842, 777.200 1176.375, 772.579 1164 L 764.177 1141.500 754.961 1141.211 L 745.745 1140.922 746.479 1178.211" stroke="none" fill="#121617" fill-rule="evenodd"/><path d="M 755 167.257 C 755 167.948, 755.463 170.085, 756.028 172.007 C 757.140 175.784, 763.755 199.746, 778.663 254 C 797.709 323.311, 799.910 331.423, 799.707 331.565 C 799.197 331.923, 739.841 348, 739.029 348 C 738.527 348, 735.967 345.188, 733.338 341.750 C 726.232 332.455, 709.589 315.607, 700.500 308.506 C 679.996 292.489, 658.344 282.737, 629 276.302 C 613.342 272.869, 578.834 271.960, 556.417 274.390 C 518.660 278.484, 479.958 287.166, 445.684 299.232 C 436.845 302.344, 435.220 303.325, 429.350 309.094 C 414.658 323.530, 395.078 347.193, 380.191 368.500 C 336.365 431.227, 307.853 506.350, 298.902 582.676 C 297.842 591.712, 297.888 593.031, 299.314 594.457 C 301.096 596.239, 303.483 595.768, 329.500 588.507 C 336.100 586.665, 348.925 583.131, 358 580.654 C 387.399 572.630, 419.167 563.935, 433.750 559.922 C 470.026 549.938, 477.579 547.850, 478.657 547.505 C 479.495 547.236, 479.292 544.844, 477.921 538.817 C 471.912 512.414, 469.726 489.417, 471.966 476.180 C 473.698 465.944, 478.711 456.379, 485.684 450.006 C 495.734 440.820, 511.823 434.319, 527.017 433.303 C 542.549 432.265, 553.450 436.318, 564 447.052 C 578.480 461.785, 589 491.513, 589 517.697 C 589 536.344, 584.464 548.088, 572.249 561.074 C 562.978 570.929, 555.553 576.422, 535.500 588.264 C 476.481 623.117, 452.966 637.328, 442 644.769 C 409.050 667.131, 386.910 688.016, 370.894 711.849 C 347.148 747.184, 339.129 788.506, 345.655 841.907 C 346.170 846.119, 346.038 847.141, 345.058 846.536 C 342.165 844.748, 361.394 878.564, 374.323 898 C 414.504 958.409, 468.242 1009.169, 530.493 1045.516 C 544.829 1053.887, 575.353 1069.039, 575.974 1068.092 C 576.263 1067.651, 578.975 1066.710, 582 1066.001 C 591.863 1063.689, 612.867 1056.087, 621.829 1051.586 C 646.546 1039.172, 667.626 1020.622, 681.572 999.013 C 691.678 983.353, 699.536 960.632, 702.234 939.267 C 703.203 931.599, 703.703 930, 705.135 930 C 706.087 930, 707.170 931.013, 707.542 932.250 C 707.914 933.487, 711.589 943.050, 715.708 953.500 C 724.109 974.811, 730.652 989.130, 736.800 999.657 L 740.953 1006.768 749.226 1004.490 C 765.644 999.969, 790.935 993.032, 813 986.997 C 825.375 983.613, 841.800 979.111, 849.500 976.993 C 857.200 974.876, 871.825 970.860, 882 968.070 C 920.767 957.440, 940.364 951.970, 940.629 951.704 C 940.780 951.553, 938.016 947.395, 934.485 942.465 C 914.091 913.980, 899.365 874.887, 873.661 781 C 868.606 762.536, 859.848 730.662, 854.015 709.500 C 851.893 701.800, 847.391 685.375, 844.011 673 C 840.632 660.625, 836.129 644.200, 834.005 636.500 C 831.881 628.800, 825.582 605.850, 820.007 585.500 C 814.432 565.150, 808.132 542.200, 806.007 534.500 C 797.222 502.663, 789.068 472.377, 788.793 470.566 C 788.459 468.364, 787.652 468.654, 815.475 460.997 C 825.362 458.277, 833.757 456.377, 834.133 456.775 C 834.508 457.174, 836.180 462.450, 837.849 468.500 C 839.518 474.550, 843.136 487.600, 845.890 497.500 C 853.809 525.974, 867.974 577.501, 871.043 589 C 872.585 594.775, 876.159 607.825, 878.987 618 C 886.387 644.628, 894.604 674.565, 898.476 689 C 900.320 695.875, 903.413 707.125, 905.348 714 C 907.284 720.875, 910.658 733.025, 912.846 741 C 923.530 779.940, 927.329 793.772, 931.383 808.500 C 933.806 817.300, 938.121 833.050, 940.972 843.500 C 964.678 930.383, 981.206 968.802, 1005.424 993.314 C 1016.039 1004.058, 1025.870 1010.372, 1039.728 1015.346 L 1046.955 1017.941 1054.728 1012.064 C 1070.209 1000.358, 1082.834 989.210, 1100.076 972.021 C 1132.684 939.514, 1156.296 908.883, 1177.949 871 L 1185.094 858.500 1180.297 858.257 C 1159.094 857.181, 1147.674 849.209, 1137.015 828.045 C 1129.126 812.380, 1129.559 813.816, 1097.494 697 C 1086.700 657.675, 1075.006 615.150, 1071.508 602.500 C 1068.009 589.850, 1061.695 566.900, 1057.477 551.500 C 1053.258 536.100, 1042.887 498.368, 1034.430 467.651 C 1025.973 436.933, 1018.793 410.383, 1018.474 408.651 L 1017.895 405.500 1068.497 391.706 C 1096.328 384.120, 1120.148 377.514, 1121.430 377.027 L 1123.761 376.140 1120.481 364.320 C 1107.930 319.082, 1105.825 311.297, 1105.699 309.642 C 1105.475 306.697, 1076.759 280.129, 1059.348 266.758 L 1053.196 262.034 1037.348 266.433 C 992.229 278.958, 983.741 281.133, 983.041 280.352 C 982.621 279.883, 981.601 276.800, 980.774 273.500 C 979.464 268.273, 964.811 214.567, 963.368 209.701 C 962.786 207.740, 958.088 205.479, 939 197.970 C 887.875 177.858, 825.633 166, 771.193 166 C 758.860 166, 755 166.300, 755 167.257 M 296.374 637.500 C 296.376 643.550, 296.541 645.896, 296.740 642.713 C 296.939 639.531, 296.937 634.581, 296.736 631.713 C 296.535 628.846, 296.372 631.450, 296.374 637.500 M 628.620 670.518 C 625.227 677.931, 617.196 685.673, 608 690.398 C 597.419 695.835, 582.834 705.771, 573.768 713.721 C 555.398 729.827, 546.344 746.698, 544.570 768.125 C 542.823 789.232, 550.923 827.916, 561.521 849.085 C 573.099 872.211, 591.271 887.345, 609.071 888.687 C 629.410 890.221, 652.696 876.871, 661.459 858.653 C 670.667 839.507, 671.249 815.913, 663.463 777.398 C 661.562 767.992, 658.257 754.042, 656.119 746.398 C 653.982 738.754, 650.195 725.075, 647.705 716 C 634.741 668.759, 633.613 665, 632.407 665 C 631.714 665, 630.010 667.483, 628.620 670.518" stroke="none" fill="#ffffff" fill-rule="evenodd"/><path d="M 964 209.967 C 964 210.943, 983.010 280.321, 983.384 280.710 C 983.495 280.825, 999.020 276.662, 1017.884 271.460 C 1036.748 266.257, 1052.446 262, 1052.768 262 C 1053.533 262, 1039.573 251.788, 1030 245.344 C 1017.107 236.666, 998.125 225.589, 981.656 217.134 C 965.589 208.885, 964 208.240, 964 209.967 M 866.750 1097.305 C 864.138 1097.872, 862 1098.670, 862 1099.079 C 862 1099.712, 872.488 1097.751, 875.500 1096.555 C 877.464 1095.775, 871.415 1096.294, 866.750 1097.305 M 824.901 1104.433 C 824.663 1104.670, 819.975 1105.177, 814.484 1105.558 C 808.993 1105.940, 804.247 1106.395, 803.937 1106.569 C 803.627 1106.744, 799.690 1106.976, 795.187 1107.084 C 790.684 1107.193, 787 1107.655, 787 1108.112 C 787 1108.569, 789.362 1108.750, 792.250 1108.514 C 795.138 1108.277, 800.538 1107.840, 804.250 1107.542 C 820.283 1106.255, 824.556 1105.719, 825.450 1104.886 C 825.972 1104.399, 826.160 1104, 825.867 1104 C 825.573 1104, 825.139 1104.195, 824.901 1104.433 M 718 1106.003 C 729.593 1107.540, 733.190 1107.789, 732.337 1106.995 C 731.877 1106.567, 727 1105.975, 721.500 1105.679 C 713.144 1105.230, 712.569 1105.284, 718 1106.003 M 734.083 1107.395 C 734.313 1107.612, 737.847 1108.028, 741.937 1108.320 C 746.585 1108.651, 748.836 1108.509, 747.937 1107.940 C 746.580 1107.081, 733.196 1106.554, 734.083 1107.395" stroke="none" fill="#f15b61" fill-rule="evenodd"/><path d="M 1107.617 317.750 C 1108.946 322.563, 1113.109 337.674, 1116.868 351.331 L 1123.703 376.163 1121.401 377.038 C 1120.135 377.519, 1096.328 384.120, 1068.497 391.706 L 1017.895 405.500 1018.474 408.651 C 1018.793 410.383, 1025.973 436.933, 1034.430 467.651 C 1042.887 498.368, 1053.258 536.100, 1057.477 551.500 C 1061.695 566.900, 1068.009 589.850, 1071.508 602.500 C 1075.006 615.150, 1086.700 657.675, 1097.494 697 C 1125.081 797.501, 1126.776 803.466, 1130.469 813.045 C 1143.027 845.613, 1156.537 858, 1179.499 858 L 1184.899 858 1189.199 849.751 C 1206.398 816.763, 1222.501 770.674, 1230.454 731.671 C 1232.719 720.563, 1236.660 692.791, 1238.141 677.500 C 1238.834 670.350, 1239.401 652.350, 1239.401 637.500 C 1239.401 609.048, 1238.408 595.005, 1234.485 568 C 1222.153 483.092, 1185.951 402.262, 1130.576 336 C 1120.486 323.926, 1106.855 309, 1105.918 309 C 1105.523 309, 1106.287 312.938, 1107.617 317.750" stroke="none" fill="#febf2f" fill-rule="evenodd"/><path d="M 810.761 462.908 C 799.355 466.063, 789.775 468.891, 789.473 469.193 C 789.172 469.495, 790.526 475.538, 792.482 482.621 C 794.439 489.704, 798.321 503.825, 801.108 514 C 803.895 524.175, 807.908 538.800, 810.025 546.500 C 812.142 554.200, 816.406 569.725, 819.500 581 C 822.594 592.275, 826.863 607.800, 828.985 615.500 C 831.107 623.200, 835.609 639.625, 838.989 652 C 842.368 664.375, 846.873 680.800, 848.998 688.500 C 851.123 696.200, 854.955 710.150, 857.513 719.500 C 860.071 728.850, 864.334 744.375, 866.986 754 C 869.637 763.625, 874.140 780.050, 876.991 790.500 C 900.427 876.405, 915.345 915.040, 936.187 943.812 C 939.499 948.384, 942.049 952.246, 941.854 952.394 C 941.659 952.542, 935.425 954.282, 928 956.260 C 920.575 958.238, 896.275 964.869, 874 970.995 C 851.725 977.121, 827.875 983.650, 821 985.505 C 809.766 988.535, 797.451 991.912, 755.580 1003.442 C 748.473 1005.399, 742.144 1007, 741.513 1007 C 738.468 1007, 726.874 983.544, 714.453 952.250 C 709.596 940.013, 705.289 930, 704.883 930 C 704.476 930, 703.840 932.587, 703.469 935.750 C 699.420 970.259, 687.188 997.465, 665.729 1019.692 C 644.671 1041.504, 619.880 1056.130, 589.995 1064.373 L 577.500 1067.820 583.500 1070.529 C 610.854 1082.881, 657.112 1096.225, 694.088 1102.429 C 711.115 1105.286, 735.899 1107.134, 762 1107.494 C 787.986 1107.852, 797.012 1107.424, 827 1104.411 C 843.455 1102.758, 879.002 1095.463, 896.961 1090.054 C 904.364 1087.824, 910.775 1086, 911.208 1086 C 912.680 1086, 939.458 1075.998, 950.500 1071.324 C 971.377 1062.487, 990.472 1052.862, 1009.500 1041.584 C 1020.064 1035.322, 1044.970 1018.673, 1044.987 1017.861 C 1044.994 1017.510, 1043.519 1016.945, 1041.709 1016.605 C 1036.875 1015.698, 1024.477 1009.516, 1017.480 1004.523 C 1009.217 998.627, 996.306 984.791, 989.696 974.751 C 972.002 947.873, 959.565 914.207, 937.516 833.500 C 934.361 821.950, 929.857 805.525, 927.507 797 C 925.158 788.475, 920.893 772.950, 918.030 762.500 C 909.347 730.809, 905.087 715.322, 900.013 697 C 897.347 687.375, 893.135 672.075, 890.652 663 C 886.518 647.890, 881.294 628.885, 871 591.500 C 868.880 583.800, 864.610 568.275, 861.512 557 C 858.414 545.725, 854.141 530.200, 852.017 522.500 C 849.893 514.800, 845.830 499.950, 842.989 489.500 C 835.028 460.219, 834.005 456.994, 832.708 457.086 C 832.043 457.133, 822.168 459.753, 810.761 462.908" stroke="none" fill="#c13039" fill-rule="evenodd"/><path d="M 628.447 672.097 C 623.681 680.791, 617.359 686.577, 606.625 692.067 C 590.090 700.525, 571.995 714.419, 562.434 726 C 553.880 736.361, 547.817 749.335, 546.409 760.293 C 545.587 766.692, 545.543 784.896, 546.336 791 C 546.657 793.475, 547.156 797.525, 547.445 800 C 548.302 807.350, 553.733 827.807, 557.522 837.957 C 562.397 851.014, 569.172 862.141, 577.644 871 C 589.668 883.573, 599.182 887.838, 614.300 887.429 C 624.449 887.155, 634.250 883.975, 643.446 877.972 C 658.918 867.872, 666.113 853.280, 667.622 828.945 C 668.378 816.759, 666.785 796.921, 663.932 783 C 662.861 777.775, 661.734 772.150, 661.427 770.500 C 660.604 766.081, 655.997 748.619, 648.500 721.500 C 644.850 708.300, 640.048 690.750, 637.828 682.500 C 635.609 674.250, 633.474 666.921, 633.085 666.212 C 632.632 665.387, 630.967 667.500, 628.447 672.097" stroke="none" fill="#262960" fill-rule="evenodd"/><path d="M 522.500 433.715 C 515.484 434.685, 506.961 437.391, 499.243 441.098 C 483.555 448.633, 474.249 461.064, 471.895 477.629 C 469.980 491.102, 472.333 514.642, 477.926 537.971 C 479.044 542.630, 479.630 546.743, 479.229 547.110 C 478.828 547.477, 469.950 550.112, 459.500 552.966 C 449.050 555.820, 434.200 559.896, 426.500 562.025 C 418.800 564.154, 395.850 570.453, 375.500 576.024 C 355.150 581.594, 330.206 588.425, 320.070 591.204 C 305.348 595.239, 301.273 596.027, 299.820 595.119 C 298.150 594.077, 297.993 594.416, 297.919 599.242 C 297.874 602.134, 297.688 605.850, 297.505 607.500 C 297.062 611.485, 297.044 664.124, 297.483 670.500 C 298.066 678.971, 299.124 690.939, 299.496 693.277 C 299.691 694.499, 300.600 700.450, 301.517 706.500 C 308.239 750.869, 321.379 795.014, 339.244 833.250 C 341.492 838.063, 343.693 842, 344.134 842 C 344.576 842, 344.696 842.629, 344.400 843.399 C 344.105 844.168, 344.410 845.135, 345.077 845.547 C 345.965 846.097, 346.131 845.522, 345.696 843.399 C 345.370 841.804, 344.542 832.773, 343.857 823.329 C 341.861 795.797, 344.462 772.643, 352.151 749.500 C 364.179 713.298, 389.550 682.088, 431.600 651.767 C 444.130 642.732, 454.435 636.167, 477.630 622.443 C 558.932 574.339, 561.873 572.423, 572.838 560.444 C 580.164 552.439, 586.226 540.797, 588.073 531.186 C 590.981 516.044, 587.076 490.055, 578.965 470.571 C 567.435 442.874, 548 430.188, 522.500 433.715" stroke="none" fill="#3953a5" fill-rule="evenodd"/><path d="M 729.500 167.525 C 701.470 169.921, 682.598 172.935, 657 179.106 C 590.408 195.157, 529.154 225.212, 474 268.897 C 462.416 278.072, 462.250 278.219, 441.044 297.871 C 438.594 300.142, 436.966 302, 437.428 302 C 437.890 302, 442.820 300.362, 448.384 298.360 C 478.935 287.366, 519.268 278.418, 556.417 274.390 C 578.834 271.960, 613.342 272.869, 629 276.302 C 658.344 282.737, 679.996 292.489, 700.500 308.506 C 709.589 315.607, 726.232 332.455, 733.338 341.750 C 735.967 345.188, 738.527 348, 739.029 348 C 739.841 348, 799.197 331.923, 799.707 331.565 C 799.820 331.485, 797.265 321.763, 794.029 309.960 C 781.625 264.731, 768.940 218.621, 762.952 197 C 759.525 184.625, 756.258 172.588, 755.692 170.250 L 754.663 166 749.582 166.121 C 746.787 166.188, 737.750 166.820, 729.500 167.525" stroke="none" fill="#0087c6" fill-rule="evenodd"/></svg>